<svg xmlns:dc="http://purl.org/dc/elements/1.1/" xmlns:cc="http://creativecommons.org/ns#"
  xmlns:rdf="http://www.w3.org/1999/02/22-rdf-syntax-ns#" xmlns:svg="http://www.w3.org/2000/svg"
  xmlns="http://www.w3.org/2000/svg" xmlns:xlink="http://www.w3.org/1999/xlink" id="svg307994"
  viewBox="0 0 1024 768" height="768" width="1024" version="1.1">
  <metadata id="metadata308000" fill="#FFFFFF">
    <rdf:rdf fill="#FFFFFF">
      <cc:work rdf:about="" fill="#FFFFFF">
        <dc:format fill="#FFFFFF">image/svg+xml</dc:format>
        <dc:type rdf:resource="http://purl.org/dc/dcmitype/StillImage" fill="#FFFFFF"></dc:type>
      </cc:work>
    </rdf:rdf>
  </metadata>
  <defs id="defs307998"></defs>
  <linearGradient spreadMethod="pad" y2="30%" x2="-10%" y1="120%" x1="30%"
    id="3d_gradient2-logo-40f48819-7bc0-44d1-819f-6734f5817e2b" fill="#FFFFFF">
    <stop id="stop307975" stop-opacity="1" stop-color="#ffffff" offset="0%" fill="#FFFFFF"></stop>
    <stop id="stop307977" stop-opacity="1" stop-color="#000000" offset="100%" fill="#FFFFFF"></stop>
  </linearGradient>
  <linearGradient gradientTransform="rotate(-30)" spreadMethod="pad" y2="30%" x2="-10%" y1="120%"
    x1="30%" id="3d_gradient3-logo-40f48819-7bc0-44d1-819f-6734f5817e2b" fill="#FFFFFF">
    <stop id="stop307980" stop-opacity="1" stop-color="#ffffff" offset="0%" fill="#FFFFFF"></stop>
    <stop id="stop307982" stop-opacity="1" stop-color="#cccccc" offset="50%" fill="#FFFFFF"></stop>
    <stop id="stop307984" stop-opacity="1" stop-color="#000000" offset="100%" fill="#FFFFFF"></stop>
  </linearGradient>
  <g id="logo-group" fill="#FFFFFF">
    <image id="container" x="51.200000000000045" y="-76.79999999999995" width="921.5999999999999"
      height="921.5999999999999" style="display: none;" transform="translate(0 0)" fill="#FFFFFF"></image>
    <g id="logo-center" transform="translate(180.7716147000001 0)" fill="#FFFFFF">
      <image id="icon_container" x="0" y="0" style="display: none;" fill="#FFFFFF"></image>
      <g id="slogan"
        style="font-style:normal;font-weight:300;font-size:32px;line-height:1;font-family:Montserrat;font-variant-ligatures:none;text-align:center;text-anchor:middle"
        transform="translate(0 0)" fill="#FFFFFF">
        <path id="path308002"
          style="font-style:normal;font-weight:300;font-size:32px;line-height:1;font-family:Montserrat;font-variant-ligatures:none;text-align:center;text-anchor:middle"
          d="m 398.34675,-16.832 q 2.336,0 4.16,1.088 1.856,1.056 2.88,3.008 1.024,1.92 1.024,4.384 0,2.432 -1.024,4.352 -1.024,1.92 -2.848,3.008 -1.824,1.056 -4.16,1.056 -2.304,0 -4.032,-1.024 -1.728,-1.056 -2.688,-2.912 V 0 h -2.144 v -23.744 h 2.144 v 10.848 q 0.928,-1.856 2.656,-2.88 1.76,-1.056 4.032,-1.056 z m -0.384,15.04 q 1.792,0 3.232,-0.832 1.44,-0.864 2.24,-2.368 0.8,-1.504 0.8,-3.424 0,-1.888 -0.8,-3.392 -0.8,-1.504 -2.24,-2.336 -1.44,-0.864 -3.232,-0.864 -1.824,0 -3.264,0.864 -1.408,0.832 -2.24,2.336 -0.8,1.504 -0.8,3.392 0,1.92 0.8,3.424 0.8,1.504 2.24,2.368 1.44,0.832 3.264,0.832 z"
          stroke-width="1" stroke-linejoin="miter" stroke-miterlimit="2" fill="#66D3FF"
          stroke="#66D3FF"
          transform="translate(-180.7716147000001 373.64176000000003) translate(391.116965 52.13696) scale(0.91) translate(-389.51475 23.744)"></path>
        <path id="path308004"
          style="font-style:normal;font-weight:300;font-size:32px;line-height:1;font-family:Montserrat;font-variant-ligatures:none;text-align:center;text-anchor:middle"
          d="m 410.97975,-16.768 h 2.144 V 0 h -2.144 z m 1.088,-6.336 q 0.64,0 1.056,0.448 0.416,0.416 0.416,1.056 0,0.64 -0.448,1.088 -0.416,0.448 -1.024,0.448 -0.64,0 -1.088,-0.448 -0.416,-0.448 -0.416,-1.088 0,-0.64 0.416,-1.056 0.448,-0.448 1.088,-0.448 z"
          stroke-width="1" stroke-linejoin="miter" stroke-miterlimit="2" fill="#66D3FF"
          stroke="#66D3FF"
          transform="translate(-180.7716147000001 373.64176000000003) translate(412.091555 52.719359999999995) scale(0.91) translate(-410.56375 23.104)"></path>
        <path id="path308006"
          style="font-style:normal;font-weight:300;font-size:32px;line-height:1;font-family:Montserrat;font-variant-ligatures:none;text-align:center;text-anchor:middle"
          d="m 428.12275,-16.832 q 3.008,0 4.704,1.76 1.728,1.728 1.728,4.768 V 0 h -2.176 v -9.792 q 0,-2.368 -1.312,-3.712 -1.312,-1.344 -3.648,-1.344 -2.592,0.032 -4.16,1.6 -1.536,1.568 -1.76,4.224 V 0 h -2.144 v -16.768 h 2.144 v 3.904 q 0.864,-1.952 2.528,-2.944 1.696,-0.992 4.096,-1.024 z"
          stroke-width="1" stroke-linejoin="miter" stroke-miterlimit="2" fill="#66D3FF"
          stroke="#66D3FF"
          transform="translate(-180.7716147000001 373.64176000000003) translate(421.91136500000005 58.42688) scale(0.91) translate(-419.35475 16.832)"></path>
        <path id="path308008"
          style="font-style:normal;font-weight:300;font-size:32px;line-height:1;font-family:Montserrat;font-variant-ligatures:none;text-align:center;text-anchor:middle"
          d="m 450.82025,0 -0.032,-2.816 q -0.992,1.472 -2.592,2.208 -1.6,0.704 -3.68,0.704 -1.696,0 -3.008,-0.64 -1.28,-0.672 -1.984,-1.824 -0.704,-1.152 -0.704,-2.592 0,-2.176 1.664,-3.424 1.696,-1.248 4.64,-1.248 h 5.632 v -1.28 q 0,-1.984 -1.184,-3.072 -1.184,-1.088 -3.456,-1.088 -2.688,0 -5.408,2.016 l -0.96,-1.472 q 1.696,-1.184 3.232,-1.728 1.536,-0.576 3.52,-0.576 3.04,0 4.704,1.536 1.664,1.504 1.696,4.192 L 452.93225,0 Z m -5.92,-1.696 q 2.24,0 3.776,-1.024 1.568,-1.056 2.112,-2.944 v -2.304 h -5.408 q -2.208,0 -3.36,0.736 -1.152,0.736 -1.152,2.208 0,1.504 1.088,2.432 1.12,0.896 2.944,0.896 z"
          stroke-width="1" stroke-linejoin="miter" stroke-miterlimit="2" fill="#66D3FF"
          stroke="#66D3FF"
          transform="translate(-180.7716147000001 373.64176000000003) translate(441.44497 58.42688) scale(0.91) translate(-438.82025 16.832)"></path>
        <path id="path308010"
          style="font-style:normal;font-weight:300;font-size:32px;line-height:1;font-family:Montserrat;font-variant-ligatures:none;text-align:center;text-anchor:middle"
          d="m 467.43525,-16.832 q 3.008,0 4.704,1.76 1.728,1.728 1.728,4.768 V 0 h -2.176 v -9.792 q 0,-2.368 -1.312,-3.712 -1.312,-1.344 -3.648,-1.344 -2.592,0.032 -4.16,1.6 -1.536,1.568 -1.76,4.224 V 0 h -2.144 v -16.768 h 2.144 v 3.904 q 0.864,-1.952 2.528,-2.944 1.696,-0.992 4.096,-1.024 z"
          stroke-width="1" stroke-linejoin="miter" stroke-miterlimit="2" fill="#66D3FF"
          stroke="#66D3FF"
          transform="translate(-180.7716147000001 373.64176000000003) translate(461.32574000000005 58.42688) scale(0.91) translate(-458.66725 16.832)"></path>
        <path id="path308012"
          style="font-style:normal;font-weight:300;font-size:32px;line-height:1;font-family:Montserrat;font-variant-ligatures:none;text-align:center;text-anchor:middle"
          d="m 491.28475,-12.96 q -2.048,-1.984 -5.024,-1.984 -1.792,0 -3.232,0.832 -1.44,0.832 -2.24,2.336 -0.8,1.472 -0.8,3.392 0,1.92 0.8,3.424 0.8,1.504 2.24,2.336 1.44,0.832 3.232,0.832 1.632,0 2.976,-0.576 1.376,-0.576 2.304,-1.664 l 1.216,1.28 q -1.12,1.344 -2.816,2.08 -1.696,0.736 -3.776,0.736 -2.4,0 -4.288,-1.056 -1.888,-1.088 -2.976,-3.008 -1.056,-1.952 -1.056,-4.384 0,-2.432 1.056,-4.352 1.088,-1.952 2.976,-3.008 1.888,-1.088 4.288,-1.088 1.952,0 3.552,0.64 1.632,0.64 2.784,1.792 z"
          stroke-width="1" stroke-linejoin="miter" stroke-miterlimit="2" fill="#66D3FF"
          stroke="#66D3FF"
          transform="translate(-180.7716147000001 373.64176000000003) translate(480.597265 58.42688) scale(0.91) translate(-477.84475 16.832)"></path>
        <path id="path308014"
          style="font-style:normal;font-weight:300;font-size:32px;line-height:1;font-family:Montserrat;font-variant-ligatures:none;text-align:center;text-anchor:middle"
          d="m 503.25775,-16.832 q 3.904,0 5.952,2.496 2.048,2.464 1.888,6.656 h -13.984 q 0.224,2.688 1.984,4.352 1.76,1.632 4.352,1.632 1.6,0 2.976,-0.576 1.376,-0.576 2.368,-1.632 l 1.216,1.216 q -1.216,1.312 -2.944,2.048 -1.696,0.704 -3.744,0.704 -2.432,0 -4.32,-1.056 -1.888,-1.088 -2.976,-3.008 -1.056,-1.92 -1.056,-4.384 0,-2.432 1.056,-4.352 1.088,-1.952 2.976,-3.008 1.888,-1.088 4.256,-1.088 z m 5.92,7.488 q -0.16,-2.624 -1.76,-4.16 -1.568,-1.568 -4.128,-1.568 -2.528,0 -4.224,1.568 -1.696,1.568 -1.952,4.16 z"
          stroke-width="1" stroke-linejoin="miter" stroke-miterlimit="2" fill="#66D3FF"
          stroke="#66D3FF"
          transform="translate(-180.7716147000001 373.64176000000003) translate(498.00101500000005 58.42688) scale(0.91) translate(-494.96975 16.832)"></path>
        <path id="path308016"
          style="font-style:normal;font-weight:300;font-size:32px;line-height:1;font-family:Montserrat;font-variant-ligatures:none;text-align:center;text-anchor:middle"
          d="m 544.41725,-3.936 q 0,1.088 0.544,1.728 0.576,0.608 1.408,0.608 0.992,0 1.792,-0.864 0.832,-0.864 1.28,-2.4 0.48,-1.568 0.48,-3.584 0,-3.616 -1.6,-6.496 -1.6,-2.88 -4.48,-4.512 -2.88,-1.664 -6.56,-1.664 -3.616,0 -6.592,1.664 -2.976,1.632 -4.672,4.544 -1.696,2.88 -1.696,6.432 0,3.456 1.632,6.208 1.632,2.752 4.48,4.32 2.88,1.568 6.432,1.568 1.44,0 3.104,-0.448 1.664,-0.448 2.848,-1.216 l 0.8,1.472 q -1.312,0.832 -3.232,1.344 -1.888,0.512 -3.52,0.512 -4.032,0 -7.296,-1.792 -3.232,-1.76 -5.088,-4.896 -1.856,-3.168 -1.856,-7.072 0,-4.032 1.92,-7.296 1.92,-3.264 5.248,-5.12 3.36,-1.856 7.488,-1.856 4.096,0 7.36,1.856 3.264,1.824 5.12,5.088 1.856,3.232 1.856,7.296 0,2.528 -0.704,4.416 -0.672,1.888 -1.92,2.944 -1.216,1.024 -2.848,1.024 -1.376,0 -2.304,-0.8 -0.896,-0.832 -1.024,-2.272 l -0.032,-1.344 q -0.96,1.856 -2.656,2.88 -1.696,0.992 -3.84,0.992 -2.144,0 -3.904,-0.992 -1.76,-1.024 -2.816,-2.816 -1.024,-1.824 -1.024,-4.096 0,-2.24 0.96,-4.064 0.96,-1.824 2.688,-2.848 1.728,-1.056 3.936,-1.056 2.208,0 3.904,1.088 1.696,1.056 2.336,2.528 v -3.424 h 2.048 z m -7.968,-10.656 q -1.632,0 -2.944,0.8 -1.28,0.768 -2.016,2.144 -0.736,1.344 -0.736,3.008 0,1.696 0.736,3.072 0.736,1.376 2.016,2.176 1.312,0.8 2.976,0.8 1.696,0 3.008,-0.768 1.312,-0.8 2.048,-2.176 0.736,-1.376 0.736,-3.104 0,-1.696 -0.736,-3.04 -0.736,-1.344 -2.08,-2.112 -1.312,-0.8 -3.008,-0.8 z"
          stroke-width="1" stroke-linejoin="miter" stroke-miterlimit="2" fill="#66D3FF"
          stroke="#66D3FF"
          transform="translate(-180.7716147000001 373.64176000000003) translate(524.9875200000001 53.039680000000004) scale(0.91) translate(-522.62525 22.752)"></path>
        <path id="path308018"
          style="font-style:normal;font-weight:300;font-size:32px;line-height:1;font-family:Montserrat;font-variant-ligatures:none;text-align:center;text-anchor:middle"
          d="m 573.68525,-16.832 q 3.008,0 4.704,1.76 1.728,1.728 1.728,4.768 V 0 h -2.176 v -9.792 q 0,-2.368 -1.312,-3.712 -1.312,-1.344 -3.648,-1.344 -2.592,0.032 -4.16,1.6 -1.536,1.568 -1.76,4.224 V 0 h -2.144 v -16.768 h 2.144 v 3.904 q 0.864,-1.952 2.528,-2.944 1.696,-0.992 4.096,-1.024 z"
          stroke-width="1" stroke-linejoin="miter" stroke-miterlimit="2" fill="#66D3FF"
          stroke="#66D3FF"
          transform="translate(-180.7716147000001 373.64176000000003) translate(565.2932400000001 58.42688) scale(0.91) translate(-564.91725 16.832)"></path>
        <path id="path308020"
          style="font-style:normal;font-weight:300;font-size:32px;line-height:1;font-family:Montserrat;font-variant-ligatures:none;text-align:center;text-anchor:middle"
          d="m 594.84675,-16.832 q 2.336,0 4.16,1.088 1.856,1.056 2.88,3.008 1.024,1.92 1.024,4.384 0,2.432 -1.024,4.352 -1.024,1.92 -2.848,3.008 -1.824,1.056 -4.16,1.056 -2.304,0 -4.032,-1.024 -1.728,-1.056 -2.688,-2.912 v 10.08 h -2.144 v -22.976 h 2.144 v 3.872 q 0.928,-1.856 2.656,-2.88 1.76,-1.056 4.032,-1.056 z m -0.384,15.04 q 1.792,0 3.232,-0.832 1.44,-0.864 2.24,-2.368 0.8,-1.504 0.8,-3.424 0,-1.888 -0.8,-3.392 -0.8,-1.504 -2.24,-2.336 -1.44,-0.864 -3.232,-0.864 -1.824,0 -3.264,0.864 -1.408,0.832 -2.24,2.336 -0.8,1.504 -0.8,3.392 0,1.92 0.8,3.424 0.8,1.504 2.24,2.368 1.44,0.832 3.264,0.832 z"
          stroke-width="1" stroke-linejoin="miter" stroke-miterlimit="2" fill="#66D3FF"
          stroke="#66D3FF"
          transform="translate(-180.7716147000001 373.64176000000003) translate(586.3119650000001 58.42688) scale(0.91) translate(-586.01475 16.832)"></path>
        <path id="path308022"
          style="font-style:normal;font-weight:300;font-size:32px;line-height:1;font-family:Montserrat;font-variant-ligatures:none;text-align:center;text-anchor:middle"
          d="m 628.88775,-16.832 q 2.976,0 4.64,1.728 1.664,1.728 1.664,4.8 V 0 h -2.176 v -9.792 q 0,-2.4 -1.312,-3.712 -1.28,-1.344 -3.552,-1.344 -2.688,0.064 -4.224,1.856 -1.504,1.792 -1.504,4.736 V 0 h -2.176 v -9.792 q 0,-2.4 -1.312,-3.712 -1.28,-1.344 -3.552,-1.344 -2.688,0.064 -4.224,1.856 -1.536,1.792 -1.536,4.736 V 0 h -2.144 v -16.768 h 2.144 v 3.936 q 0.832,-1.984 2.464,-2.976 1.664,-0.992 4.032,-1.024 2.4,0 3.968,1.184 1.6,1.184 2.112,3.328 0.768,-2.24 2.464,-3.36 1.728,-1.12 4.224,-1.152 z"
          stroke-width="1" stroke-linejoin="miter" stroke-miterlimit="2" fill="#66D3FF"
          stroke="#66D3FF"
          transform="translate(-180.7716147000001 373.64176000000003) translate(607.665115 58.42688) scale(0.91) translate(-607.47975 16.832)"></path>
      </g>
      <g id="title"
        style="font-style:normal;font-weight:500;font-size:72px;line-height:1;font-family:'Raleway Medium Alt1';font-variant-ligatures:none;text-align:center;text-anchor:middle"
        transform="translate(0 0)" fill="#FFFFFF">
        <path id="path308025"
          style="font-style:normal;font-weight:500;font-size:72px;line-height:1;font-family:'Raleway Medium Alt1';font-variant-ligatures:none;text-align:center;text-anchor:middle"
          d="m 311.33094,0 h 6.48 v -28.728 l -6.48,-8.424 z m 36.72,-51.048 v 39.744 l -31.68,-39.816 h -5.04 v 3.888 l 6.48,8.208 31.248,39.024 h 5.472 v -51.048 z"
          stroke-width="0px" stroke-linejoin="miter" stroke-miterlimit="2" fill="#FFFFFF"
          stroke="#FFFFFF"
          transform="translate(0 284.93776) translate(50 32.01440000000001) scale(1.38) translate(-311.33094 51.12)"></path>
        <path id="path308027"
          style="font-style:normal;font-weight:500;font-size:72px;line-height:1;font-family:'Raleway Medium Alt1';font-variant-ligatures:none;text-align:center;text-anchor:middle"
          d="m 381.44206,0.72 c 2.808,0 5.4,-0.504 7.704,-1.584 2.304,-1.008 4.32,-2.448 6.048,-4.248 1.656,-1.728 2.952,-3.816 3.888,-6.192 0.864,-2.304 1.368,-4.824 1.368,-7.416 0,-2.592 -0.504,-5.112 -1.44,-7.488 -0.936,-2.304 -2.232,-4.392 -3.888,-6.192 -1.656,-1.728 -3.672,-3.168 -5.976,-4.248 -2.376,-1.008 -4.968,-1.584 -7.704,-1.584 -2.808,0 -5.4,0.576 -7.704,1.584 -2.304,1.08 -4.32,2.52 -5.976,4.248 -1.656,1.8 -2.952,3.888 -3.888,6.192 -0.936,2.376 -1.368,4.896 -1.368,7.488 0,2.592 0.432,5.112 1.368,7.416 0.864,2.376 2.16,4.464 3.816,6.192 1.656,1.8 3.672,3.24 5.976,4.248 2.304,1.08 4.896,1.584 7.776,1.584 z m -12.456,-19.368 c 0,-1.944 0.288,-3.744 0.936,-5.472 0.648,-1.728 1.512,-3.168 2.664,-4.464 1.152,-1.296 2.448,-2.304 3.96,-3.024 1.512,-0.72 3.168,-1.152 4.896,-1.152 1.728,0 3.312,0.36 4.824,1.08 1.512,0.72 2.88,1.728 4.032,3.024 1.152,1.296 2.016,2.736 2.664,4.464 0.648,1.728 1.008,3.528 1.008,5.4 0,2.016 -0.36,3.816 -1.008,5.544 -0.648,1.728 -1.512,3.168 -2.664,4.464 -1.152,1.296 -2.52,2.232 -4.032,2.952 -1.512,0.72 -3.096,1.08 -4.824,1.08 -1.728,0 -3.384,-0.36 -4.896,-1.08 -1.512,-0.72 -2.808,-1.656 -3.96,-2.952 -1.152,-1.224 -2.016,-2.664 -2.664,-4.392 -0.648,-1.656 -0.936,-3.456 -0.936,-5.472 z"
          stroke-width="0px" stroke-linejoin="miter" stroke-miterlimit="2" fill="#FFFFFF"
          stroke="#FFFFFF"
          transform="translate(0 284.93776) translate(120.6216656 49.79984000000001) scale(1.38) translate(-362.50606 38.232)"></path>
        <path id="path308029"
          style="font-style:normal;font-weight:500;font-size:72px;line-height:1;font-family:'Raleway Medium Alt1';font-variant-ligatures:none;text-align:center;text-anchor:middle"
          d="m 423.67794,0.72 c 2.736,0 5.328,-0.648 7.776,-2.016 2.448,-1.368 4.464,-3.312 5.976,-5.76 v 3.168 c 0,1.152 0.432,2.088 1.368,2.952 0.936,0.864 2.016,1.224 3.312,1.224 0.36,0 0.72,0 1.152,-0.072 0.432,0 0.936,-0.072 1.656,-0.216 v -5.472 c -1.368,0 -2.016,-0.792 -2.016,-2.304 V -52.56 h -6.336 v 22.464 c -1.44,-2.232 -3.312,-4.176 -5.688,-5.76 -2.376,-1.584 -5.04,-2.376 -8.064,-2.376 -2.52,0 -4.824,0.576 -6.912,1.584 -2.088,1.008 -3.888,2.448 -5.4,4.176 -1.512,1.8 -2.664,3.888 -3.528,6.264 -0.864,2.376 -1.224,4.896 -1.224,7.488 0,2.592 0.432,5.112 1.296,7.416 0.864,2.376 2.16,4.464 3.744,6.192 1.584,1.8 3.456,3.24 5.688,4.248 2.16,1.08 4.608,1.584 7.2,1.584 z m 1.512,-5.472 c -1.872,0 -3.528,-0.36 -5.112,-1.08 -1.584,-0.72 -2.88,-1.728 -4.032,-3.024 -1.152,-1.224 -2.088,-2.664 -2.736,-4.392 -0.72,-1.728 -1.008,-3.528 -1.008,-5.4 0,-1.728 0.288,-3.456 0.864,-5.184 0.576,-1.728 1.368,-3.24 2.448,-4.536 1.08,-1.296 2.376,-2.376 3.888,-3.168 1.512,-0.792 3.24,-1.224 5.112,-1.224 1.152,0 2.376,0.288 3.6,0.72 1.224,0.432 2.376,1.08 3.456,1.872 1.08,0.792 2.088,1.728 2.952,2.808 0.864,1.08 1.512,2.232 1.944,3.384 v 10.8 c -0.288,1.152 -0.792,2.304 -1.584,3.312 -0.792,1.008 -1.728,1.944 -2.808,2.664 -1.08,0.792 -2.232,1.368 -3.456,1.8 -1.224,0.432 -2.376,0.648 -3.528,0.648 z"
          stroke-width="0px" stroke-linejoin="miter" stroke-miterlimit="2" fill="#FFFFFF"
          stroke="#FFFFFF"
          transform="translate(0 284.93776) translate(180.29821999999996 30.027200000000008) scale(1.38) translate(-405.74994 52.56)"></path>
        <path id="path308031"
          style="font-style:normal;font-weight:500;font-size:72px;line-height:1;font-family:'Raleway Medium Alt1';font-variant-ligatures:none;text-align:center;text-anchor:middle"
          d="m 470.11119,0.72 c 1.872,0 3.672,-0.216 5.4,-0.72 1.728,-0.432 3.24,-1.08 4.68,-1.944 1.44,-0.864 2.664,-1.872 3.744,-3.024 1.08,-1.152 1.944,-2.376 2.592,-3.816 l -5.472,-1.512 c -0.432,1.008 -1.008,1.872 -1.728,2.592 -0.72,0.792 -1.584,1.44 -2.52,1.944 -1.008,0.576 -2.016,1.008 -3.096,1.296 -1.152,0.288 -2.232,0.432 -3.384,0.432 -1.656,0 -3.24,-0.288 -4.68,-0.936 -1.44,-0.576 -2.736,-1.44 -3.888,-2.592 -1.152,-1.08 -2.088,-2.376 -2.808,-3.96 -0.72,-1.512 -1.152,-3.24 -1.296,-5.112 h 31.176 c 0,-0.216 0.072,-0.576 0.072,-1.008 0,-0.432 0.072,-0.864 0.072,-1.44 0,-2.448 -0.504,-4.896 -1.368,-7.2 -0.864,-2.304 -2.16,-4.392 -3.744,-6.12 -1.656,-1.728 -3.672,-3.168 -5.976,-4.248 -2.304,-1.008 -4.896,-1.584 -7.704,-1.584 -2.88,0 -5.472,0.576 -7.776,1.584 -2.376,1.008 -4.392,2.448 -6.12,4.176 -1.728,1.8 -3.024,3.888 -3.96,6.192 -0.936,2.376 -1.368,4.896 -1.368,7.488 0,2.664 0.432,5.184 1.368,7.56 0.936,2.376 2.232,4.464 3.96,6.192 1.656,1.8 3.672,3.24 6.048,4.248 2.304,1.008 4.896,1.512 7.776,1.512 z m 12.888,-22.032 h -25.488 c 0.144,-1.728 0.504,-3.384 1.224,-4.896 0.72,-1.44 1.584,-2.736 2.736,-3.816 1.152,-1.08 2.448,-1.944 3.96,-2.52 1.44,-0.576 3.024,-0.936 4.752,-0.936 1.656,0 3.24,0.36 4.752,0.936 1.44,0.576 2.736,1.44 3.888,2.448 1.152,1.08 2.088,2.376 2.808,3.888 0.72,1.512 1.224,3.168 1.368,4.896 z"
          stroke-width="0px" stroke-linejoin="miter" stroke-miterlimit="2" fill="#FFFFFF"
          stroke="#FFFFFF"
          transform="translate(0 284.93776) translate(242.68698499999994 49.79984000000001) scale(1.38) translate(-450.95919 38.232)"></path>
        <path id="path308033"
          style="font-style:normal;font-weight:500;font-size:72px;line-height:1;font-family:'Raleway Medium Alt1';font-variant-ligatures:none;text-align:center;text-anchor:middle"
          d="m 495.58456,0 h 5.328 v -8.064 h -5.328 z" stroke-width="0px" stroke-linejoin="miter"
          stroke-miterlimit="2" fill="#FFFFFF" stroke="#FFFFFF"
          transform="translate(0 284.93776) translate(304.26999559999996 91.43168) scale(1.38) translate(-495.58456 8.064)"></path>
        <path id="path308035"
          style="font-style:normal;font-weight:500;font-size:72px;line-height:1;font-family:'Raleway Medium Alt1';font-variant-ligatures:none;text-align:center;text-anchor:middle"
          d="m 505.74894,13.392 c 1.512,0 2.952,-0.288 4.392,-0.864 1.368,-0.576 2.592,-1.44 3.672,-2.52 1.08,-1.08 1.944,-2.376 2.592,-3.888 0.648,-1.44 1.008,-3.096 1.008,-4.896 v -38.808 h -6.336 v 39.24 c 0,0.864 -0.216,1.728 -0.504,2.448 -0.36,0.792 -0.792,1.44 -1.368,1.944 -0.576,0.576 -1.224,1.008 -1.944,1.296 -0.72,0.288 -1.512,0.432 -2.232,0.432 -0.864,0 -1.8,-0.072 -2.664,-0.36 -0.864,-0.216 -1.656,-0.648 -2.304,-1.296 l -2.952,4.248 c 1.152,1.08 2.448,1.872 3.888,2.304 1.44,0.504 3.024,0.72 4.752,0.72 z m 5.328,-58.032 h 6.336 v -7.92 h -6.336 z"
          stroke-width="0px" stroke-linejoin="miter" stroke-miterlimit="2" fill="#FFFFFF"
          stroke="#FFFFFF"
          transform="translate(0 284.93776) translate(306.37364 30.027200000000008) scale(1.38) translate(-497.10894 52.56)"></path>
        <path id="path308037"
          style="font-style:normal;font-weight:500;font-size:72px;line-height:1;font-family:'Raleway Medium Alt1';font-variant-ligatures:none;text-align:center;text-anchor:middle"
          d="m 540.76456,0.72 c 4.536,0 8.136,-1.008 10.872,-3.096 2.664,-2.016 4.032,-4.824 4.032,-8.352 0,-1.584 -0.36,-2.88 -0.936,-4.032 -0.576,-1.08 -1.512,-2.016 -2.736,-2.88 -1.224,-0.792 -2.736,-1.512 -4.608,-2.088 -1.872,-0.576 -4.032,-1.224 -6.48,-1.8 -1.584,-0.36 -2.952,-0.72 -4.104,-1.08 -1.152,-0.288 -2.016,-0.72 -2.736,-1.152 -0.72,-0.432 -1.296,-0.936 -1.584,-1.512 -0.288,-0.576 -0.432,-1.296 -0.432,-2.16 0,-2.16 0.792,-3.672 2.376,-4.68 1.584,-1.008 3.6,-1.512 5.904,-1.512 2.016,0 4.032,0.36 6.048,1.08 1.944,0.72 3.744,1.728 5.328,3.096 l 2.88,-3.816 c -1.728,-1.44 -3.744,-2.664 -6.192,-3.6 -2.448,-0.864 -5.112,-1.368 -7.92,-1.368 -2.016,0 -3.96,0.288 -5.688,0.792 -1.728,0.504 -3.24,1.224 -4.536,2.232 -1.296,1.008 -2.376,2.232 -3.096,3.672 -0.72,1.44 -1.08,3.096 -1.08,4.968 0,1.512 0.216,2.736 0.72,3.744 0.432,1.008 1.224,1.872 2.304,2.592 1.008,0.72 2.376,1.368 4.032,1.872 1.584,0.576 3.528,1.08 5.832,1.656 1.728,0.432 3.312,0.864 4.68,1.224 1.296,0.432 2.448,0.864 3.312,1.296 0.864,0.504 1.512,1.08 1.944,1.728 0.432,0.648 0.648,1.44 0.648,2.304 0,2.016 -0.864,3.528 -2.448,4.608 -1.584,1.08 -3.744,1.584 -6.48,1.584 -2.448,0 -4.824,-0.36 -6.984,-1.224 -2.232,-0.864 -4.464,-2.088 -6.624,-3.816 l -2.736,4.248 c 2.088,1.8 4.608,3.168 7.56,4.104 2.88,0.936 5.904,1.368 8.928,1.368 z"
          stroke-width="0px" stroke-linejoin="miter" stroke-miterlimit="2" fill="#FFFFFF"
          stroke="#FFFFFF"
          transform="translate(0 284.93776) translate(343.8649556 49.79984000000001) scale(1.38) translate(-524.27656 38.232)"></path>
        <path id="path308039"
          style="font-style:normal;font-weight:500;font-size:72px;line-height:1;font-family:'Raleway Medium Alt1';font-variant-ligatures:none;text-align:center;text-anchor:middle"
          d="m 612.47994,-40.392 3.024,-5.256 c -2.16,-1.728 -4.68,-3.168 -7.416,-4.248 -2.808,-1.008 -5.904,-1.584 -9.36,-1.584 -2.664,0 -5.112,0.36 -7.344,1.008 -2.304,0.648 -4.248,1.584 -5.832,2.88 -1.656,1.296 -2.952,2.88 -3.816,4.752 -0.936,1.872 -1.368,4.032 -1.368,6.48 0,2.016 0.288,3.744 1.008,5.184 0.648,1.44 1.656,2.664 2.952,3.672 1.296,1.008 2.952,1.872 4.968,2.592 1.944,0.72 4.248,1.44 6.84,2.016 2.304,0.576 4.392,1.152 6.264,1.728 1.872,0.576 3.384,1.152 4.68,1.872 1.224,0.72 2.16,1.584 2.808,2.592 0.648,1.008 1.008,2.16 1.008,3.6 0,2.592 -1.008,4.536 -3.024,5.832 -2.016,1.296 -4.896,1.944 -8.496,1.944 -2.016,0 -3.888,-0.144 -5.688,-0.576 -1.8,-0.432 -3.456,-0.936 -5.04,-1.584 -1.584,-0.648 -2.952,-1.368 -4.176,-2.232 -1.224,-0.792 -2.232,-1.584 -2.952,-2.448 l -3.096,5.472 c 2.88,2.376 6.048,4.176 9.576,5.4 3.528,1.224 7.272,1.8 11.232,1.8 2.592,0 5.04,-0.216 7.344,-0.792 2.232,-0.576 4.176,-1.44 5.832,-2.592 1.656,-1.152 2.952,-2.664 3.96,-4.464 0.936,-1.8 1.44,-3.96 1.44,-6.408 0,-2.304 -0.432,-4.248 -1.224,-5.832 -0.792,-1.584 -1.944,-2.88 -3.456,-4.032 -1.512,-1.08 -3.312,-2.016 -5.472,-2.736 -2.16,-0.72 -4.536,-1.44 -7.128,-2.016 -2.304,-0.504 -4.32,-1.008 -5.976,-1.512 -1.728,-0.432 -3.096,-1.008 -4.248,-1.656 -1.152,-0.648 -1.944,-1.44 -2.448,-2.376 -0.576,-0.864 -0.792,-2.016 -0.792,-3.456 0,-2.592 0.864,-4.608 2.736,-6.12 1.872,-1.44 4.752,-2.232 8.784,-2.232 1.512,0 2.952,0.216 4.392,0.504 1.44,0.288 2.736,0.72 3.96,1.224 1.152,0.504 2.232,1.08 3.24,1.656 0.936,0.648 1.728,1.296 2.304,1.944 z"
          stroke-width="0px" stroke-linejoin="miter" stroke-miterlimit="2" fill="#FFFFFF"
          stroke="#FFFFFF"
          transform="translate(0 284.93776) translate(418.5883399999999 31.517600000000016) scale(1.38) translate(-578.42394 51.48)"></path>
        <path id="path308041"
          style="font-style:normal;font-weight:500;font-size:72px;line-height:1;font-family:'Raleway Medium Alt1';font-variant-ligatures:none;text-align:center;text-anchor:middle"
          d="m 667.15494,-35.496 c -1.008,-3.096 -2.592,-5.832 -4.608,-8.136 -2.088,-2.232 -4.68,-4.104 -7.776,-5.472 -3.096,-1.296 -6.696,-2.016 -10.728,-2.016 h -17.712 v 5.76 h 17.712 c 2.88,0 5.4,0.504 7.704,1.512 2.232,1.008 4.104,2.376 5.688,4.032 1.584,1.728 2.736,3.816 3.528,6.264 0.792,2.448 1.224,5.112 1.224,7.92 0,2.88 -0.432,5.472 -1.224,7.92 -0.792,2.448 -1.944,4.536 -3.456,6.264 -1.512,1.8 -3.384,3.24 -5.688,4.176 -2.304,1.008 -4.896,1.512 -7.776,1.512 h -11.232 v -32.76 h -6.48 V 0 h 17.712 c 3.744,0 7.128,-0.576 10.152,-1.8 3.024,-1.224 5.688,-2.952 7.848,-5.184 2.16,-2.232 3.816,-4.896 4.968,-8.064 1.152,-3.168 1.728,-6.696 1.728,-10.584 0,-3.456 -0.576,-6.768 -1.584,-9.864 z"
          stroke-width="0px" stroke-linejoin="miter" stroke-miterlimit="2" fill="#FFFFFF"
          stroke="#FFFFFF"
          transform="translate(0 284.93776) translate(484.69999999999993 32.01440000000001) scale(1.38) translate(-626.33094 51.12)"></path>
        <path id="path308043"
          style="font-style:normal;font-weight:500;font-size:72px;line-height:1;font-family:'Raleway Medium Alt1';font-variant-ligatures:none;text-align:center;text-anchor:middle"
          d="m 684.42031,-51.048 h -6.48 v 26.784 l 6.48,-6.984 z m 12.816,22.464 20.52,-22.536 h -6.984 l -26.352,28.296 -6.48,6.912 V 0 h 6.48 v -15.624 l 8.856,-9.216 18.576,24.84 h 7.056 z"
          stroke-width="0px" stroke-linejoin="miter" stroke-miterlimit="2" fill="#FFFFFF"
          stroke="#FFFFFF"
          transform="translate(0 284.93776) translate(555.9209305999998 32.01440000000001) scale(1.38) translate(-677.94031 51.12)"></path>
      </g>
      <image id="icon" x="0" y="0" style="display: none;" fill="#FFFFFF"></image>
    </g>
  </g>
</svg>
